<?xml version="1.0" encoding="iso-8859-1"?>
<!-- Generator: Adobe Illustrator 18.0.0, SVG Export Plug-In . SVG Version: 6.00 Build 0)  -->
<!DOCTYPE svg PUBLIC "-//W3C//DTD SVG 1.1//EN" "http://www.w3.org/Graphics/SVG/1.1/DTD/svg11.dtd">
<svg version="1.1" id="Capa_1" xmlns="http://www.w3.org/2000/svg" xmlns:xlink="http://www.w3.org/1999/xlink" x="0px" y="0px"
	 viewBox="0 0 336.469 336.469" style="enable-background:new 0 0 336.469 336.469;" xml:space="preserve">
<g>
	<path d="M235.491,92.473c-8.112-51.627-67.258-47.228-67.258-84.238c0,37.125-59.515,30.432-67.333,84.295
		C49.291,84.292,35.198,141.9,0,130.465c35.307,11.471,10.548,66.002,59.36,90.088c-23.781,46.535,26.653,77.744,4.898,107.682
		c21.824-30.031,66.039,10.365,104.025-28.621c36.91,37,82.173-1.316,103.929,28.619c-21.823-30.027,30.257-59.598,4.926-107.771
		c46.594-23.672,24.135-78.563,59.332-89.997C301.161,141.934,289.139,83.264,235.491,92.473z M261.638,215.42
		c-15.962,10.521-45.938,35.035-27.02,61.068c-18.68-25.709-51.297-5.018-66.331,6.83c-14.938-11.928-47.517-32.863-66.431-6.83
		c18.676-25.707-11.078-50.332-26.993-60.969c6.729-17.897,16.571-55.346-14.034-65.289c30.222,9.817,44.446-26.092,49.645-44.516
		c19.097,0.871,57.76-1.34,57.76-33.521c0,31.779,38.548,34.209,57.676,33.461c5.074,18.432,19.124,54.52,49.73,44.575
		C245.418,160.047,255.015,197.457,261.638,215.42z"/>
	<path d="M225.171,152.468c-5.44-9.423-21.868-10.149-36.949-1.747c0.004,0.264,0.013,0.525,0.013,0.789
		c0,12.922-4.814,24.039-11.733,29.059c7.808-3.482,19.841-2.094,31.031,4.367c0.229,0.133,0.451,0.27,0.677,0.404
		C223.026,176.482,230.611,161.893,225.171,152.468z"/>
	<path d="M176.502,190.113c6.919,5.02,11.732,16.137,11.732,29.057c0,0.266-0.009,0.527-0.013,0.789
		c15.081,8.402,31.509,7.678,36.949-1.746c5.441-9.424-2.145-24.014-16.962-32.873c-0.226,0.135-0.447,0.273-0.677,0.406
		C196.342,192.207,184.309,193.596,176.502,190.113z"/>
	<path d="M168.234,194.885c-0.887,8.504-8.107,18.23-19.298,24.691c-0.229,0.133-0.46,0.256-0.689,0.383
		c0.263,17.262,9.105,31.125,19.987,31.125c10.881,0,19.725-13.863,19.987-31.125c-0.229-0.127-0.46-0.25-0.689-0.383
		C176.342,213.115,169.121,203.389,168.234,194.885z"/>
	<path d="M159.969,190.113c-7.807,3.482-19.842,2.094-31.032-4.367c-0.229-0.133-0.451-0.271-0.677-0.406
		c-14.817,8.859-22.402,23.449-16.962,32.873c5.44,9.424,21.868,10.148,36.949,1.746c-0.004-0.262-0.013-0.523-0.013-0.789
		C148.234,206.25,153.049,195.133,159.969,190.113z"/>
	<path d="M159.967,180.568c-6.919-5.021-11.732-16.138-11.732-29.059c0-0.265,0.009-0.525,0.013-0.789
		c-15.081-8.402-31.509-7.676-36.949,1.748c-5.44,9.422,2.145,24.014,16.962,32.871c0.226-0.135,0.447-0.271,0.677-0.404
		C140.126,178.475,152.16,177.086,159.967,180.568z"/>
	<path d="M168.234,175.795c0.887-8.502,8.107-18.229,19.298-24.689c0.229-0.133,0.46-0.256,0.689-0.385
		c-0.263-17.261-9.106-31.125-19.987-31.125c-10.881,0-19.725,13.863-19.987,31.125c0.229,0.129,0.46,0.252,0.689,0.384
		C160.127,157.566,167.348,167.293,168.234,175.795z"/>
</g>
<g>
</g>
<g>
</g>
<g>
</g>
<g>
</g>
<g>
</g>
<g>
</g>
<g>
</g>
<g>
</g>
<g>
</g>
<g>
</g>
<g>
</g>
<g>
</g>
<g>
</g>
<g>
</g>
<g>
</g>
</svg>
